Coordinates
version=1
nRows=6
nColumns=36
inDegrees=yes

Units are S.I. units (second, meters, Newtons, ...)
If the header above contains a line with 'inDegrees', this indicates whether rotational values are in degrees (yes) or radians (no).

endheader
time	pelvis_tilt	pelvis_list	pelvis_rotation	pelvis_tx	pelvis_ty	pelvis_tz	hip_flexion_r	hip_adduction_r	hip_rotation_r	knee_angle_r	knee_angle_r_beta	ankle_angle_r	subtalar_angle_r	mtp_angle_r	hip_flexion_l	hip_adduction_l	hip_rotation_l	knee_angle_l	knee_angle_l_beta	ankle_angle_l	subtalar_angle_l	mtp_angle_l	lumbar_extension	lumbar_bending	lumbar_rotation	arm_flex_r	arm_add_r	arm_rot_r	elbow_flex_r	pro_sup_r	arm_flex_l	arm_add_l	arm_rot_l	elbow_flex_l	pro_sup_l
      2.98333330	     -6.29001919	      6.62777951	      1.65790593	      0.38395231	      1.27316925	      0.02355899	     38.86926071	     -8.97589270	     -6.48918045	     21.68971080	      0.37855687	    -25.91862800	    -21.20620316	     -7.49999987	     21.65566577	      8.07183809	     -0.02929707	     48.54955801	      0.84734964	     33.96567999	    -16.35478811	     -7.49999987	     -5.80027858	    -10.44890226	    -10.34468487	    -18.78551139	    -25.93384255	    -52.90095560	     31.64047229	     93.91567173	    -22.10021577	    -55.62383677	    -62.89378482	     27.80984455	     76.16311146
      3.00000000	     -7.85281004	      8.07349220	      1.86012737	      0.39881606	      1.26446543	      0.02326184	     40.34704268	    -10.76507874	     -8.04174738	     20.28098438	      0.35396995	    -30.02843666	    -20.96388377	     -7.49999987	     32.44778810	      8.39519839	     -0.22887934	     54.72022571	      0.95504811	     31.98967087	    -19.41576414	     -7.49999987	     -5.58474917	    -12.15603808	    -10.86389258	    -21.32487933	    -26.64396985	    -57.75607837	     30.94054806	     91.93883407	    -30.26556628	    -56.21724280	    -69.62026775	     26.87651578	     74.15279939
      3.01666670	     -9.25514297	      8.92229298	      2.41458031	      0.41246935	      1.25655460	      0.02188737	     40.97269202	    -12.23782309	    -10.08883894	     17.96835269	      0.31360692	    -33.04634659	    -19.76764788	     -7.49999987	     40.15994887	      8.94885197	      0.73501316	     55.95674593	      0.97662946	     27.42371693	    -22.98361839	     -7.49999987	     -5.49171072	    -12.95078061	    -10.44575806	    -25.70866316	    -26.52503794	    -63.93804373	     30.95654229	     89.77150425	    -36.62803140	    -56.39103990	    -73.21284410	     26.21039841	     73.06931535
      3.03333330	     -8.48314544	      7.74881762	      1.74513378	      0.43416255	      1.24146070	      0.02221253	     37.73162281	    -11.12854055	    -12.24276599	     14.78649354	      0.25807300	    -31.26515895	    -13.58027976	     -7.49999987	     34.42415364	      8.54094738	      1.87812726	     49.92293559	      0.87131960	     14.67807497	    -23.60290302	     -7.49999987	     -6.73822156	    -11.20795612	     -9.00220906	    -31.60086040	    -26.97097220	    -67.87944317	     32.25789145	     85.58562495	    -41.97208693	    -55.52885737	    -76.18517247	     25.35915656	     71.03679743
      3.05000000	     -6.86615713	      4.71015732	      0.21479922	      0.45324858	      1.22670987	      0.02269723	     34.44246142	     -7.56152845	    -12.36720387	     12.28214895	      0.21436394	    -30.85294479	     -7.67532984	     -7.49999987	     28.21713442	      5.99812731	      3.08270961	     42.28020624	      0.73792881	      2.69601267	    -23.53772383	     -7.49999987	     -9.02610189	     -7.40780304	     -7.33486410	    -36.69838648	    -27.85233145	    -72.10726332	     33.56758911	     82.83816573	    -47.91630210	    -52.43447348	    -79.76423439	     26.77597985	     69.65539716
      3.06666670	     -6.22682476	      1.72827547	     -1.05236757	      0.47481440	      1.19971173	      0.02425169	     32.40248763	     -4.08198742	    -13.31143448	      9.96221470	      0.17387345	    -31.42207078	     -5.00257397	     -7.49999987	     24.85103564	      2.65024420	      3.06782280	     35.79144877	      0.62467863	     -4.73411732	    -21.16072109	     -7.49999987	    -10.51434610	     -4.05423152	     -6.60967274	    -42.22931551	    -29.10520321	    -72.66458036	     34.41292370	     74.58788737	    -55.73736088	    -47.58971606	    -82.39055881	     28.98024096	     64.28898108
